# xmcd
#
# Track frame offsets: 
#        150
#        10597
#        22530
#        35545
#        58625
#        68322
#        86935
#        99765
#        114315
#        125207
#        135050
#        145552
#        156272
#        180862
#
# Disc length: 2617 seconds
#
# Revision: 2
# Processed by: cddbd v1.5.2PL0 Copyright (c) Steve Scherf et al.
# Submitted via: ExactAudioCopyFreeDBPlugin 1.0
#
DISCID=980a370e
DTITLE=Various Artist - The Sound of Philadelphia [Goldies]
DYEAR=2001
DGENRE=Soul
TTITLE0=The Tymes - So Much in Love
TTITLE1=The O'Jays - Deeper in Love with You
TTITLE2=The Three Degrees - When Will I See You Again
TTITLE3=Harold Melvin and The Blue Notes - To Be Free to Be Who We Are
TTITLE4=Patty LaBelle and The Blue Belles - I Sold My Heart to the Junkm
TTITLE4=an
TTITLE5=Jerry Butler - Ain't Understanding Mellow
TTITLE6=The O'Jays - You're the Best Thing Since Candy
TTITLE7=The Three Degrees - I Do Take You
TTITLE8=Harold Melvin and The Blue Notes - Where Are All My Friends
TTITLE9=Dee Dee Sharp - Do the Bird
TTITLE10=Archie Bell and The Drells - I Can't Stop Dancing
TTITLE11=The O'Jays - There's Someone Waiting (Back Home)
TTITLE12=The Trammps - Pray All You Sinners
TTITLE13=Harold Melvin and The Blue Notes - Hope That We Can Be Together
TTITLE13=Soon
EXTD=
EXTT0=
EXTT1=
EXTT2=
EXTT3=
EXTT4=
EXTT5=
EXTT6=
EXTT7=
EXTT8=
EXTT9=
EXTT10=
EXTT11=
EXTT12=
EXTT13=
PLAYORDER=
